<?xml version="1.0" encoding="UTF-8"?>
<svg xmlns="http://www.w3.org/2000/svg" viewBox="0 0 204 277">
  <defs>
    <style>
      .cls-1, .cls-2 {
        stroke: #fff;
        stroke-miterlimit: 10;
        stroke-width: .55px;
      }

      .cls-2 {
        fill: #fff;
      }
    </style>
  </defs>
  <g id="Capa_1" data-name="Capa 1">
    <path class="cls-1" d="M150.43,72.51c18.09,24.58,52.9,66.08,52.9,66.08-17.39,19.96-35.41,42.18-53.5,66.76-17.84,24.25-33.51,47.75-47.25,70,0,0-29.24-45.6-47.08-69.85-18.09-24.58-36.11-46.81-53.5-66.76,0,0,34.81-41.49,52.9-66.08C72.74,48.42,88.41,24.92,102.15,2.66c0,0,30.44,45.6,48.28,69.85Z"/>
  </g>
  <g id="Capa_2" data-name="Capa 2">
    <path class="cls-2" d="M67.5,203.5s-1,0,1,1,4,1,4,1l2.03-1,4.97-5,3-3,4-4,2-1h4.05l-4.05-11s.08-1,2.54,0,18.46,7,18.46,7c0,0,2,1,3,0l10-10s0-1,1-3c.66-1.32.89-2.21,1.54-2.66.54-.37,1.13-.34,1.46-.34,3.95,0,5.93,0,6,0,2.11.2,3.88.36,6,0,1.02-.17,5.1-.88,8-4,.47-.51.51-.65,3-4l1-4,4-11s1-2,1-4,0-9-1-13-1-6-4-11-9-12-15-15c-7.1-3.55-13.07-4.46-19-5-5.09-.46-13.21-.6-23,2-6.8,1.8-11.62,4.26-15,6-5.97,3.07-10.65,6.36-14,9-2.64,3.82-4.13,7.34-5,10-1.04,3.16-1.4,5.69-2,10-.58,4.16-.86,7.87-1,11,0,0,3,6,3,8v4s-2,6-2,8,1,2,1,2h1l6,11c.09.83.12,1.85,0,3-.17,1.66-.6,3.02-1,4l3,15Z"/>
    <path class="cls-1" d="M61.5,150.5c1.36-1.12,5.22,1.51,7,3,2.97,2.49,4.23,5.27,5,7,.53,1.2,2.46,5.55,1,7-.83.83-2,1-2,1-.41.06-.76.03-1,0-.5-.17-1.23-.46-2-1-1.37-.97-1.94-2.07-3-4-2.24-4.08-.41-.41-4-7-.33-.67-.67-1.33-1-2-.91-2.95-.31-3.74,0-4Z"/>
  </g>
</svg>