<?xml version="1.0" encoding="UTF-8"?>
<svg id="Capa_2" data-name="Capa 2" xmlns="http://www.w3.org/2000/svg" viewBox="0 0 421 470.5">
  <defs>
    <style>
      .cls-1 {
        stroke: #fff;
        stroke-miterlimit: 10;
        stroke-width: .55px;
      }
    </style>
  </defs>
  <path class="cls-1" d="M208.62,464.89h-47c.99-1.71,2.38-4.11,4-7,4.64-8.29,8.25-14.73,12-23,.13-.29,2.76-6.86,8-20,1.96-4.9,2.95-7.42,4-11,1.85-6.33,2.5-11.16,3-15,1.01-7.78.88-12.75,0-16-.71-2.62-2-5-2-5-.4-.73-.93-1.49-2-3-.88-1.25-1.3-1.74-2-2-.67-.24-1.34-.18-2,0-3.25.89-6.93,4.93-7,5,0,0-2.95,3.48-7,7-3.32,2.88-6.09,4.74-8,6-10.91,7.21-16.35,10.86-21,13-9.58,4.41-17.6,6.29-21,7-2.16.45-11.03,2.23-23,2-6.73-.13-14.06-.27-23-3-9.53-2.9-15.97-7.24-20-10-5.96-4.08-24.26-16.99-34-42-1.4-3.6-6.39-17.12-6-35,.3-13.71,3.64-24.32,7-35,2.98-9.47,6.06-16.4,9-23,3.27-7.35,7.31-16.34,14-27,3.52-5.61,36.7-50.28,50-65,9.85-10.9,77.95-92.08,92-112,4.15-5.88,9.58-13.74,15-25,3.31-6.88,5.56-12.83,7-17,1.44,4.17,3.69,10.12,7,17,5.42,11.26,10.85,19.12,15,25,14.05,19.92,82.15,101.1,92,112,13.3,14.72,46.48,59.39,50,65,6.69,10.66,10.73,19.65,14,27,2.94,6.6,6.02,13.53,9,23,3.36,10.68,6.7,21.29,7,35,.39,17.88-4.6,31.4-6,35-9.74,25.01-28.04,37.92-34,42-4.03,2.76-10.47,7.1-20,10-8.94,2.73-16.27,2.87-23,3-11.97.23-20.84-1.55-23-2-3.4-.71-11.42-2.59-21-7-4.65-2.14-10.09-5.79-21-13-1.91-1.26-4.68-3.12-8-6-4.05-3.52-7-7-7-7-.07-.07-3.75-4.11-7-5-.66-.18-1.33-.24-2,0-.7.26-1.12.75-2,2-1.07,1.51-1.6,2.27-2,3,0,0-1.29,2.38-2,5-.88,3.25-1.01,8.22,0,16,.5,3.84,1.15,8.67,3,15,1.05,3.58,2.04,6.1,4,11,5.24,13.14,7.87,19.71,8,20,3.75,8.27,7.36,14.71,12,23,1.62,2.89,3.01,5.29,4,7,0,0-47,0-47,0Z"/>
</svg>